
<svg xmlns="http://www.w3.org/2000/svg" width="32" height="32" viewBox="0 0 32 32" fill="none">
  <rect width="32" height="32" rx="6" fill="url(#gradient)" />
  <path d="M16 7C13.2386 7 11 9.23858 11 12V16H13V12C13 10.3431 14.3431 9 16 9C17.6569 9 19 10.3431 19 12V16H21V12C21 9.23858 18.7614 7 16 7Z" fill="white" fill-opacity="0.6"/>
  <path d="M11 16L16 11M11 16H8M11 16V13" stroke="white" stroke-width="2" stroke-linecap="round" stroke-linejoin="round"/>
  <path d="M21 16L16 21M21 16H24M21 16V13" stroke="white" stroke-width="2" stroke-linecap="round" stroke-linejoin="round"/>
  <defs>
    <linearGradient id="gradient" x1="0" y1="0" x2="32" y2="32" gradientUnits="userSpaceOnUse">
      <stop stop-color="#1E88E5"/>
      <stop offset="1" stop-color="#6366F1"/>
    </linearGradient>
  </defs>
</svg>
