
<svg xmlns="http://www.w3.org/2000/svg" width="32" height="32" viewBox="0 0 32 32" fill="none">
  <rect width="32" height="32" rx="6" fill="url(#gradient)" />
  <path d="M16 8C14.3431 8 13 9.34315 13 11V15H11V11C11 8.23858 13.2386 6 16 6C18.7614 6 21 8.23858 21 11V15H19V11C19 9.34315 17.6569 8 16 8Z" fill="white"/>
  <path d="M9 16C7.89543 16 7 16.8954 7 18V24C7 25.1046 7.89543 26 9 26H23C24.1046 26 25 25.1046 25 24V18C25 16.8954 24.1046 16 23 16H9ZM16 21C16.5523 21 17 21.4477 17 22C17 22.5523 16.5523 23 16 23C15.4477 23 15 22.5523 15 22C15 21.4477 15.4477 21 16 21Z" fill="white"/>
  <defs>
    <linearGradient id="gradient" x1="0" y1="0" x2="32" y2="32" gradientUnits="userSpaceOnUse">
      <stop stop-color="#1E88E5"/>
      <stop offset="1" stop-color="#6366F1"/>
    </linearGradient>
  </defs>
</svg>
